HIERARCHY
ROOT SpineBase
{
  OFFSET 0.000000 0.000000 0.000000
  CHANNELS 6 Xposition Yposition Zposition Zrotation Xrotation Yrotation
  JOINT SpineMid
  {
    OFFSET 0.000000 28.173257 0.000000
    CHANNELS 3 Zrotation Xrotation Yrotation
    JOINT SpineShoulder
    {
      OFFSET -0.015064 20.914150 -0.652911
      CHANNELS 3 Zrotation Xrotation Yrotation
      JOINT Neck
      {
        OFFSET -0.025370 6.910854 -0.509929
        CHANNELS 3 Zrotation Xrotation Yrotation
        JOINT Head
        {
          OFFSET -1.353222 11.755735 -1.264012
          CHANNELS 3 Zrotation Xrotation Yrotation
          End Site
          {
            OFFSET 0 0 0
          }
        }
      }
      JOINT ShoulderLeft
      {
        OFFSET -16.633203 -0.961547 3.168621
        CHANNELS 3 Zrotation Xrotation Yrotation
        JOINT ElbowLeft
        {
          OFFSET -4.559149 -23.374291 -3.571832
          CHANNELS 3 Zrotation Xrotation Yrotation
          JOINT WristLeft
          {
            OFFSET 7.960690 -1.136952 -23.747643
            CHANNELS 3 Zrotation Xrotation Yrotation
            JOINT HandLeft
            {
              OFFSET 12.204353 1.424815 -4.377938
              CHANNELS 3 Zrotation Xrotation Yrotation
              JOINT HandTipLeft
              {
                OFFSET 2.576536 0.682579 -1.426551
                CHANNELS 3 Zrotation Xrotation Yrotation
                End Site
                {
                  OFFSET 0 0 0
                }
              }
              JOINT ThumbLeft
              {
                OFFSET 2.958444 1.113859 -0.702530
                CHANNELS 3 Zrotation Xrotation Yrotation
                End Site
                {
                  OFFSET 0 0 0
                }
              }
            }
          }
        }
      }
      JOINT ShoulderRight
      {
        OFFSET 15.965093 -1.497942 -4.060690
        CHANNELS 3 Zrotation Xrotation Yrotation
        JOINT ElbowRight
        {
          OFFSET 9.800959 -23.282245 -5.040729
          CHANNELS 3 Zrotation Xrotation Yrotation
          JOINT WristRight
          {
            OFFSET -18.410635 -0.175045 -10.382846
            CHANNELS 3 Zrotation Xrotation Yrotation
            JOINT HandRight
            {
              OFFSET -6.630006 1.225438 -7.298613
              CHANNELS 3 Zrotation Xrotation Yrotation
              JOINT HandTipRight
              {
                OFFSET -4.579899 -0.634738 -2.880336
                CHANNELS 3 Zrotation Xrotation Yrotation
                End Site
                {
                  OFFSET 0 0 0
                }
              }
              JOINT ThumbRight
              {
                OFFSET -3.391700 0.704628 -2.102475
                CHANNELS 3 Zrotation Xrotation Yrotation
                End Site
                {
                  OFFSET 0 0 0
                }
              }
            }
          }
        }
      }
    }
  }
  JOINT HipLeft
  {
    OFFSET -6.124125 0.016312 -2.201816
    CHANNELS 3 Zrotation Xrotation Yrotation
    JOINT KneeLeft
    {
      OFFSET -5.384364 -30.741973 4.189616
      CHANNELS 3 Zrotation Xrotation Yrotation
      JOINT AnkleLeft
      {
        OFFSET -2.098937 -38.414889 9.354005
        CHANNELS 3 Zrotation Xrotation Yrotation
        JOINT FootLeft
        {
          OFFSET -3.136663 -2.760051 -12.796892
          CHANNELS 3 Zrotation Xrotation Yrotation
          End Site
          {
            OFFSET 0 0 0
          }
        }
      }
    }
  }
  JOINT HipRight
  {
    OFFSET 5.631115 0.888161 -4.502786
    CHANNELS 3 Zrotation Xrotation Yrotation
    JOINT KneeRight
    {
      OFFSET 8.362784 -32.715288 4.418084
      CHANNELS 3 Zrotation Xrotation Yrotation
      JOINT AnkleRight
      {
        OFFSET 2.680138 -33.460039 9.107036
        CHANNELS 3 Zrotation Xrotation Yrotation
        JOINT FootRight
        {
          OFFSET -1.882321 -4.290153 -12.810446
          CHANNELS 3 Zrotation Xrotation Yrotation
          End Site
          {
            OFFSET 0 0 0
          }
        }
      }
    }
  }
}
MOTION
Frames: 6
Frame Time: 0.033333
31.200025 77.432256 381.548143 -0.000000 0.000000 11.075045 0.000000 0.000000 -11.075045 -0.000000 0.000000 0.000000 -0.000000 0.000000 0.000000 0.000000 0.000000 0.000000 -0.000000 0.000000 0.000000 -0.000000 0.000000 0.000000 -0.000000 0.000000 0.000000 -0.000000 0.000000 0.000000 0.000000 0.000000 0.000000 0.000000 0.000000 0.000000 -0.000000 0.000000 0.000000 -0.000000 0.000000 0.000000 -0.000000 0.000000 0.000000 -0.000000 0.000000 0.000000 0.000000 0.000000 0.000000 0.000000 0.000000 0.000000 0.000000 0.000000 -11.075045 -0.000000 0.000000 0.000000 -0.000000 0.000000 0.000000 0.000000 0.000000 0.000000 0.000000 0.000000 -11.075045 -0.000000 0.000000 0.000000 -0.000000 0.000000 0.000000 0.000000 0.000000 0.000000
31.331427 77.418678 381.395425 0.019219 0.106968 11.062078 -0.039386 -0.101293 -11.062131 -0.000000 0.000000 0.000000 -0.000000 0.000000 0.000000 0.000000 0.000000 0.000000 -0.136914 1.333797 -0.237175 0.142472 -1.333215 0.240427 -1.737222 -0.652285 0.208394 -4.297423 -2.280191 -1.470448 0.000000 0.000000 0.000000 0.000000 0.000000 0.000000 -0.000000 0.000000 0.000000 1.289984 -0.741905 -2.677702 -1.399367 0.592861 1.763338 0.078699 0.085401 0.931364 0.000000 0.000000 0.000000 0.000000 0.000000 0.000000 -0.039386 -0.101293 -11.062131 -0.000000 0.000000 0.000000 1.131964 -2.957891 -2.136541 0.000000 0.000000 0.000000 -0.039386 -0.101293 -11.062131 -0.000000 0.000000 0.000000 -0.000000 0.000000 0.000000 0.000000 0.000000 0.000000
31.449576 77.408401 381.257731 0.037204 0.198851 11.065218 -0.074677 -0.188014 -11.065405 -0.000000 0.000000 0.000000 -0.000000 0.000000 0.000000 0.000000 0.000000 0.000000 -0.281488 2.440770 -0.425542 0.812557 -0.950057 0.029700 -4.351707 -3.053502 1.312754 -5.993423 -3.144068 -2.872276 0.000000 0.000000 0.000000 0.000000 0.000000 0.000000 -1.368221 -0.693055 -0.003813 3.578667 -0.630369 -4.667048 -2.631115 1.125601 2.818295 -0.956404 0.710539 2.089262 0.000000 0.000000 0.000000 0.000000 0.000000 0.000000 -0.074677 -0.188014 -11.065405 -0.450112 1.118952 -0.166708 2.527673 -6.948503 -3.507402 0.000000 0.000000 0.000000 0.486906 0.891967 -10.723713 -0.330150 -2.076435 -0.413777 -0.027329 0.910674 0.065869 0.000000 0.000000 0.000000
31.554473 77.401427 381.135062 0.053968 0.275705 11.084292 -0.105967 -0.260186 -11.084662 -0.000000 0.000000 0.000000 -0.000000 0.000000 0.000000 0.000000 0.000000 0.000000 -0.435104 3.299009 -0.561738 1.390595 -0.577161 0.040558 -7.208741 -5.492082 2.780768 -5.665830 -2.899057 -4.452312 0.000000 0.000000 0.000000 0.000000 0.000000 0.000000 -1.987997 -0.921242 0.026897 4.876112 -0.863354 -6.194069 -3.896422 1.783447 3.543726 -1.056830 0.635718 2.963892 0.000000 0.000000 0.000000 0.000000 0.000000 0.000000 -0.105967 -0.260186 -11.084662 -0.618722 1.484376 -0.224395 3.478248 -10.102025 -4.445546 0.000000 0.000000 0.000000 0.663641 1.279842 -10.604883 -0.431795 -2.879276 -0.575446 -0.053761 1.223509 0.084196 0.000000 0.000000 0.000000
31.646118 77.397754 381.027418 0.069520 0.337564 11.119184 -0.133316 -0.317820 -11.119759 -0.000000 0.000000 0.000000 -0.000000 0.000000 0.000000 0.000000 0.000000 0.000000 -0.598405 3.892129 -0.643670 2.082902 0.399660 0.039763 -10.409527 -8.602525 4.867089 -3.792969 -1.834229 -6.496422 0.000000 0.000000 0.000000 0.000000 0.000000 0.000000 -2.538881 -1.051519 0.084766 5.935531 -1.102369 -7.397119 -5.355699 2.717322 4.328708 -0.723359 0.100611 3.419125 0.000000 0.000000 0.000000 0.000000 0.000000 0.000000 -0.133316 -0.317820 -11.119759 -0.750313 1.720583 -0.266332 4.274866 -13.048654 -4.839075 0.000000 0.000000 0.000000 0.782346 1.603576 -10.530878 -0.478956 -3.516358 -0.698766 -0.088315 1.459126 0.094302 0.000000 0.000000 0.000000
31.724511 77.397384 380.934798 0.083869 0.384442 11.169840 -0.156756 -0.360912 -11.170615 -0.000000 0.000000 0.000000 1.122169 0.045529 0.125322 0.000000 0.000000 0.000000 -0.771121 4.209613 -0.670621 2.888797 1.992381 0.014890 -13.751313 -12.346678 7.513403 -0.790094 -0.293095 -9.180751 0.000000 0.000000 0.000000 0.000000 0.000000 0.000000 -3.002148 -1.072717 0.172686 6.782708 -1.378180 -8.358693 -7.085993 3.989754 5.565397 0.092298 -0.959941 3.171072 0.000000 0.000000 0.000000 0.000000 0.000000 0.000000 -0.156756 -0.360912 -11.170615 -0.845187 1.827667 -0.293214 4.956727 -15.805209 -4.663780 0.000000 0.000000 0.000000 0.835253 1.846714 -10.505938 -0.464319 -3.978766 -0.778206 -0.131152 1.625791 0.096781 0.000000 0.000000 0.000000
